<?xml version="1.0" encoding="utf-8"?>
<!-- Generator: Adobe Illustrator 24.0.0, SVG Export Plug-In . SVG Version: 6.00 Build 0)  -->
<svg version="1.1" id="图层_1" xmlns="http://www.w3.org/2000/svg" xmlns:xlink="http://www.w3.org/1999/xlink" x="0px" y="0px"
	 viewBox="0 0 260 260" style="enable-background:new 0 0 260 260;" xml:space="preserve">
<style type="text/css">
	.st0{fill:#FFFFFF;}
</style>
<g>
	<path class="st0" d="M123.1,252.5c-38.8,0-77.7,0-116.5,0c0-82,0-163.9,0-245.9c82.3,0,164.6,0,246.8,0c0,82,0,163.9,0,245.9
		c-39.5,0-78.9,0-118.4,0c6.8-1,13.6-1.6,20.3-3.1c65.7-15,106.3-76.9,93.6-143C236.4,41.3,173.1-3.5,104.7,10.7
		C41.3,23.8,0.9,81.1,8.3,145.2c5.6,48.6,41.5,90.3,88.9,102.6C105.6,250,114.4,250.9,123.1,252.5z"/>
	<path d="M123.1,252.5c-8.7-1.5-17.5-2.5-26-4.7c-47.3-12.3-83.3-54-88.9-102.6C0.9,81.1,41.3,23.8,104.7,10.7
		c68.4-14.2,131.7,30.6,144.2,95.7c12.7,66.1-27.9,128-93.6,143c-6.7,1.5-13.5,2.1-20.3,3.1C131.1,252.5,127.1,252.5,123.1,252.5z
		 M103.3,238.9c48.3,13.5,113.1-11.9,133-74.8c19.1-60.3-15.8-116.5-59-134.6C135.2,89.6,93.1,149.8,51,209.9
		c8,9.1,22.8,18.7,37.4,24.8c3.3,1.4,4.9,0.9,7-2c20.8-30,41.7-59.8,62.7-89.7c2.1-3,3.4-5.3,1.8-9.3c-2.7-7.2,2.3-15.2,9.7-16.9
		c7.7-1.7,15.3,3.3,16.6,11.2c1.3,7.4-4.3,15-12,15.4c-3.5,0.2-5.4,1.6-7.2,4.2c-17.1,24.5-34.3,49-51.4,73.5
		C111.5,227,107.5,232.9,103.3,238.9z M44,202.2c41.3-59,82.5-117.9,123.9-176.9C128.2,9.5,70.7,18.8,37.4,66.4
		C6.4,110.7,13.6,168.3,44,202.2z"/>
	<path class="st0" d="M103.3,238.9c4.2-6,8.2-11.8,12.3-17.7c17.2-24.5,34.3-49,51.4-73.5c1.8-2.7,3.7-4.1,7.2-4.2
		c7.7-0.3,13.3-8,12-15.4c-1.4-7.9-8.9-13-16.6-11.2c-7.4,1.7-12.5,9.7-9.7,16.9c1.5,4,0.2,6.3-1.8,9.3
		c-21,29.8-41.9,59.7-62.7,89.7c-2,2.9-3.7,3.4-7,2C73.8,228.6,59,219,51,209.9c42.1-60.1,84.2-120.3,126.3-180.4
		c43.2,18.1,78.1,74.3,59,134.6C216.5,226.9,151.6,252.4,103.3,238.9z"/>
	<path class="st0" d="M44,202.2c-30.4-33.9-37.6-91.6-6.6-135.9c33.3-47.6,90.9-56.9,130.5-41.1C126.6,84.3,85.3,143.2,44,202.2z"/>
</g>
</svg>
