<?xml version="1.0" encoding="utf-8"?>
<!-- Generator: Adobe Illustrator 24.0.0, SVG Export Plug-In . SVG Version: 6.00 Build 0)  -->
<svg version="1.1" id="图层_1" xmlns="http://www.w3.org/2000/svg" xmlns:xlink="http://www.w3.org/1999/xlink" x="0px" y="0px"
	 viewBox="0 0 48 48" style="enable-background:new 0 0 48 48;" xml:space="preserve">
<style type="text/css">
	.st0{fill:#FCFCFC;}
</style>
<title>Matt Grey Design</title>
<g>
	<path class="st0" d="M24,1c13,0,23.5,10.3,23.5,23c0,12.7-10.6,23.1-23.5,23.1C11,47,0.5,36.7,0.5,24C0.6,11.2,11,1,24,1z M19,44.5
		c9.7,2.6,22.2-2.7,25.7-14.6C48,18.6,41.3,8.3,33.2,5C25.1,16.3,17,27.7,8.9,39c1.6,1.8,4.4,3.5,7.2,4.7c0.6,0.3,1,0.1,1.3-0.4
		c4-5.7,8-11.3,12-16.9c0.4-0.6,0.6-1,0.3-1.8c-0.5-1.4,0.5-2.9,1.9-3.2c1.5-0.3,2.9,0.6,3.2,2.1c0.2,1.4-0.8,2.8-2.3,2.9
		c-0.7,0-1,0.3-1.4,0.8c-3.3,4.6-6.6,9.3-9.9,13.9C20.6,42.3,19.8,43.4,19,44.5z M31.4,4.2C23.3,1,11.6,3.3,5.6,13.1
		c-5.5,8.8-2.9,19.4,2.1,24.4C15.5,26.4,23.4,15.3,31.4,4.2z"/>
</g>
</svg>
