<?xml version="1.0" encoding="utf-8"?>
<!-- Generator: Adobe Illustrator 24.0.0, SVG Export Plug-In . SVG Version: 6.00 Build 0)  -->
<svg version="1.1" id="图层_1" xmlns="http://www.w3.org/2000/svg" xmlns:xlink="http://www.w3.org/1999/xlink" x="0px" y="0px"
	 viewBox="0 0 48 48" style="enable-background:new 0 0 48 48;" xml:space="preserve">
<style type="text/css">
	.st0{fill:#FFFFFF;stroke:#FFFFFF;stroke-width:1.5;stroke-miterlimit:10;}
</style>
<title>Matt Grey Design</title>
<g>
	<path class="st0" d="M24,1.6c12.6,0,22.8,10,22.8,22.3c0,12.3-10.3,22.4-22.8,22.4c-12.6,0-22.7-10-22.7-22.4
		C1.2,11.6,11.4,1.6,24,1.6z M19.1,43.9c9.4,2.5,21.5-2.6,25-14.2c3.2-11-3.3-21-11.2-24.2c-7.9,11-15.7,22-23.6,33
		c1.6,1.7,4.3,3.4,7,4.5c0.6,0.3,0.9,0.1,1.3-0.4c3.9-5.5,7.8-11,11.7-16.4c0.4-0.6,0.6-1,0.3-1.7c-0.5-1.3,0.4-2.8,1.8-3.1
		c1.4-0.3,2.8,0.6,3.1,2.1c0.2,1.4-0.8,2.8-2.3,2.8c-0.7,0-1,0.3-1.3,0.8c-3.2,4.5-6.4,9-9.6,13.5C20.7,41.7,19.9,42.8,19.1,43.9z
		 M31.2,4.8C23.3,1.7,12,3.9,6.1,13.4c-5.3,8.6-2.9,18.8,2,23.7C15.8,26.4,23.5,15.6,31.2,4.8z"/>
</g>
</svg>
